<svg version="1.1" viewBox="0.0 0.0 125.60892388451444 150.3202099737533" fill="none" stroke="none" stroke-linecap="square" stroke-miterlimit="10" xmlns:xlink="http://www.w3.org/1999/xlink" xmlns="http://www.w3.org/2000/svg"><clipPath id="p.0"><path d="m0 0l125.608925 0l0 150.3202l-125.608925 0l0 -150.3202z" clip-rule="nonzero"/></clipPath><g clip-path="url(#p.0)"><path fill="#000000" fill-opacity="0.0" d="m0 0l125.608925 0l0 150.3202l-125.608925 0z" fill-rule="evenodd"/><path fill="#248f7f" d="m0 0l125.6063 0l0 150.3307l-125.6063 0z" fill-rule="evenodd"/><path stroke="#252e2b" stroke-width="24.0" stroke-linejoin="round" stroke-linecap="butt" d="m0 0l125.6063 0l0 150.3307l-125.6063 0z" fill-rule="evenodd"/><path fill="#000000" fill-opacity="0.0" d="m24.82084 75.17013l0 0c0 -20.986824 17.013178 -38.000004 38.0 -38.000004l0 0c10.078224 0 19.743675 4.003559 26.870056 11.129944c7.1263885 7.126381 11.129944 16.791828 11.129944 26.87006l0 0c0 20.986816 -17.013176 38.0 -38.0 38.0l0 0c-20.98682 0 -38.0 -17.013184 -38.0 -38.0z" fill-rule="evenodd"/><path stroke="#84e1c1" stroke-width="8.0" stroke-linejoin="round" stroke-linecap="butt" d="m24.82084 75.17013l0 0c0 -20.986824 17.013178 -38.000004 38.0 -38.000004l0 0c10.078224 0 19.743675 4.003559 26.870056 11.129944c7.1263885 7.126381 11.129944 16.791828 11.129944 26.87006l0 0c0 20.986816 -17.013176 38.0 -38.0 38.0l0 0c-20.98682 0 -38.0 -17.013184 -38.0 -38.0z" fill-rule="evenodd"/><path fill="#84e1c1" d="m38.440746 75.13738l0 0c0 -13.333111 10.815674 -24.141735 24.157482 -24.141735l0 0c6.4069595 0 12.551514 2.543499 17.081917 7.0709496c4.530411 4.5274544 7.0755615 10.667999 7.0755615 17.070786l0 0c0 13.333107 -10.815674 24.141731 -24.157478 24.141731l0 0c-13.341808 0 -24.157482 -10.808624 -24.157482 -24.141731z" fill-rule="evenodd"/><path stroke="#84e1c1" stroke-width="12.0" stroke-linejoin="round" stroke-linecap="butt" d="m38.440746 75.13738l0 0c0 -13.333111 10.815674 -24.141735 24.157482 -24.141735l0 0c6.4069595 0 12.551514 2.543499 17.081917 7.0709496c4.530411 4.5274544 7.0755615 10.667999 7.0755615 17.070786l0 0c0 13.333107 -10.815674 24.141731 -24.157478 24.141731l0 0c-13.341808 0 -24.157482 -10.808624 -24.157482 -24.141731z" fill-rule="evenodd"/><path fill="#248f7f" d="m58.36617 50.995647l9.297367 0l-1.8594742 15.564587l-5.5784187 0z" fill-rule="evenodd"/><path fill="#248f7f" d="m67.66377 99.71564l-9.297367 0l1.8594742 -15.564583l5.5784187 0z" fill-rule="evenodd"/><path fill="#248f7f" d="m86.763725 70.708405l0 9.295273l-15.568092 -1.8590546l0 -5.5771637z" fill-rule="evenodd"/><path fill="#248f7f" d="m38.44072 80.003914l0 -9.295273l15.568092 1.8590546l0 5.5771637z" fill-rule="evenodd"/><path fill="#248f7f" d="m76.54353 55.133095l6.574234 6.57275l-12.323151 9.691273l-3.9445343 -3.9436493z" fill-rule="evenodd"/><path fill="#248f7f" d="m48.659412 95.57796l-6.57423 -6.572754l12.323147 -9.691269l3.944542 3.9436493z" fill-rule="evenodd"/><path fill="#248f7f" d="m83.11762 89.00548l-6.574234 6.5727463l-9.693459 -12.320366l3.944542 -3.943657z" fill-rule="evenodd"/><path fill="#248f7f" d="m42.08533 61.705814l6.57423 -6.57275l9.693459 12.320366l-3.944538 3.943657z" fill-rule="evenodd"/><path fill="#248f7f" d="m56.276855 75.34708l0 0c0 -3.4876556 2.827301 -6.3149567 6.3149605 -6.3149567l0 0c1.6748314 0 3.281063 0.66532135 4.465351 1.8496094c1.1842804 1.184288 1.8496094 2.7905197 1.8496094 4.4653473l0 0c0 3.4876633 -2.8273087 6.3149643 -6.3149605 6.3149643l0 0c-3.4876595 0 -6.3149605 -2.827301 -6.3149605 -6.3149643z" fill-rule="evenodd"/></g></svg>